<svg width="24" height="24" viewBox="0 0 24 24" fill="none" xmlns="http://www.w3.org/2000/svg">
<g clip-path="url(#clip0_2035_76)">
<path d="M15.5536 15.8571C18.1075 11.8496 17.7864 12.3496 17.86 12.2451C18.7898 10.9336 19.2812 9.39009 19.2812 7.78125C19.2812 3.51469 15.819 0 11.5469 0C7.28866 0 3.8125 3.50775 3.8125 7.78125C3.8125 9.38906 4.31425 10.973 5.27453 12.3022L7.54009 15.8572C5.11783 16.2294 1 17.3387 1 19.7812C1 20.6716 1.58116 21.9405 4.34978 22.9293C6.283 23.6197 8.83895 24 11.5469 24C16.6105 24 22.0938 22.5716 22.0938 19.7812C22.0938 17.3383 17.9808 16.2301 15.5536 15.8571ZM6.44917 11.5287C6.44144 11.5166 6.43336 11.5047 6.42494 11.4931C5.62586 10.3938 5.21875 9.09098 5.21875 7.78125C5.21875 4.26478 8.05028 1.40625 11.5469 1.40625C15.0362 1.40625 17.875 4.26605 17.875 7.78125C17.875 9.09309 17.4756 10.3517 16.7197 11.4221C16.652 11.5114 17.0054 10.9624 11.5469 19.5276L6.44917 11.5287ZM11.5469 22.5938C6.01591 22.5938 2.40625 20.968 2.40625 19.7812C2.40625 18.9836 4.261 17.6721 8.371 17.1609L10.9539 21.2138C11.0174 21.3135 11.105 21.3956 11.2087 21.4525C11.3123 21.5093 11.4286 21.5391 11.5468 21.5391C11.665 21.5391 11.7813 21.5093 11.885 21.4525C11.9886 21.3956 12.0762 21.3135 12.1398 21.2138L14.7226 17.1609C18.8327 17.6721 20.6875 18.9836 20.6875 19.7812C20.6875 20.9579 17.1103 22.5938 11.5469 22.5938Z" fill="#B79539"/>
<path d="M11.5469 4.26562C9.60836 4.26562 8.03125 5.84273 8.03125 7.78125C8.03125 9.71977 9.60836 11.2969 11.5469 11.2969C13.4854 11.2969 15.0625 9.71977 15.0625 7.78125C15.0625 5.84273 13.4854 4.26562 11.5469 4.26562ZM11.5469 9.89062C10.3838 9.89062 9.4375 8.94436 9.4375 7.78125C9.4375 6.61814 10.3838 5.67188 11.5469 5.67188C12.71 5.67188 13.6562 6.61814 13.6562 7.78125C13.6562 8.94436 12.71 9.89062 11.5469 9.89062Z" fill="#B79539"/>
</g>
<defs>
<clipPath id="clip0_2035_76">
<rect width="24" height="24" fill="white"/>
</clipPath>
</defs>
</svg>
