<svg width="51" height="50" viewBox="0 0 51 50" fill="none" xmlns="http://www.w3.org/2000/svg">
<g clip-path="url(#clip0_2028_82)">
<g clip-path="url(#clip1_2028_82)">
<path d="M42.1598 17.137H8.05918M42.1598 17.137L39.4476 11.746C38.1929 9.25137 35.6393 7.67719 32.8473 7.67719H17.3717C14.5791 7.67719 12.0255 9.25137 10.7708 11.746L8.05918 17.137M42.1598 17.137L45.2181 19.0493C47.4737 20.4593 48.844 22.9313 48.844 25.5913V31.7283C48.844 32.4313 48.7177 33.1292 48.4707 33.788L48.3093 34.219C48.1161 34.7356 47.7609 35.1582 47.3146 35.4392C46.9223 35.6864 46.468 35.8174 46.0043 35.817L41.9542 35.9184C41.6585 35.9263 41.3685 35.8363 41.1289 35.6629L39.0443 34.1539L37.8984 33.3246L12.3201 33.2113L11.1747 34.04L9.07427 35.5604C8.84409 35.7271 8.56715 35.8169 8.28293 35.817H4.21408C3.73939 35.817 3.28792 35.681 2.90443 35.4392C2.4479 35.1526 2.09821 34.7238 1.90917 34.219L1.74773 33.788C1.50132 33.1292 1.37507 32.4316 1.375 31.7283V25.5913C1.375 22.9313 2.74469 20.4593 5.00032 19.0493L8.05918 17.137" stroke="#B79539" stroke-width="2" stroke-miterlimit="10"/>
<path d="M11.1749 34.0399V38.0957C11.1749 38.9171 10.5088 39.5832 9.68742 39.5832H4.39162C3.57026 39.5832 2.90411 38.9171 2.90411 38.0957V35.439C3.29616 35.6862 3.75027 35.8173 4.21376 35.8169H8.28261M41.9544 35.9183L46.0046 35.8169C46.4793 35.8169 46.9313 35.6809 47.3148 35.439V38.0957C47.3148 38.9171 46.6487 39.5832 45.8273 39.5832H40.5315C39.7101 39.5832 39.044 38.9171 39.044 38.0957V34.1537M42.1601 16.989C40.715 19.7244 38.8197 22.2214 36.5731 24.3484M8.05942 16.989C9.50445 19.7244 11.3998 22.2214 13.6464 24.3484M15.2744 28.718H34.5582M38.8667 29.851C38.8667 27.6695 40.6352 25.9011 42.8166 25.9011H44.7844C45.1538 25.9011 45.4529 26.2001 45.4529 26.5695V28.3125C45.4529 29.1621 44.7641 29.851 43.9144 29.851H38.8667ZM41.9465 16.8853C41.9465 14.9962 43.4776 13.4651 45.3668 13.4651H47.0707C47.3901 13.4651 47.6496 13.724 47.6496 14.044V15.553C47.6496 16.2889 47.0531 16.8853 46.3173 16.8853H41.9465ZM8.27298 16.989C8.27298 15.0999 6.74185 13.5688 4.85272 13.5688H3.14825C2.82877 13.5688 2.56934 13.8276 2.56934 14.1477V15.6567C2.56934 16.3925 3.16581 16.989 3.90164 16.989H8.27298ZM11.3522 29.851C11.3522 27.6695 9.58376 25.9011 7.40234 25.9011H5.43447C5.06514 25.9011 4.76605 26.2001 4.76605 26.5695V28.3125C4.76605 29.1621 5.45486 29.851 6.30455 29.851H11.3522Z" stroke="#B79539" stroke-width="2" stroke-miterlimit="10"/>
</g>
</g>
<defs>
<clipPath id="clip0_2028_82">
<rect width="50" height="50" fill="white" transform="translate(0.333496)"/>
</clipPath>
<clipPath id="clip1_2028_82">
<rect width="50" height="50" fill="white" transform="translate(0.333496)"/>
</clipPath>
</defs>
</svg>
