<svg width="50" height="50" viewBox="0 0 50 50" fill="none" xmlns="http://www.w3.org/2000/svg">
<path d="M38.2134 31.3775C38.3171 31.4018 38.4246 31.4046 38.5294 31.3857C38.6342 31.3669 38.734 31.3269 38.8228 31.2681C38.9115 31.2093 38.9874 31.133 39.0456 31.0439C39.1038 30.9547 39.1432 30.8546 39.1613 30.7497L40.0034 25.8692L43.3187 26.4522C43.4574 26.4766 43.6001 26.463 43.7317 26.413C43.8634 26.3629 43.9791 26.2782 44.0665 26.1678L45.869 23.891C45.9783 23.753 46.0378 23.5821 46.0378 23.4061V2.2915C46.0377 1.08184 45.0535 0.0976562 43.8439 0.0976562H24.431C23.8364 0.0976562 23.3 0.319824 22.8797 0.740137L16.3827 7.23721C15.9624 7.65762 15.7401 8.19404 15.7401 8.78857V22.7068C15.6056 22.8084 15.4929 22.9361 15.4088 23.0821L14.7035 24.3036C14.537 24.5917 14.4915 24.9341 14.5769 25.2558C13.0975 26.2994 11.7524 27.8022 10.7318 29.57C9.71123 31.3378 9.08213 33.2542 8.91807 35.0571C8.75889 35.0999 8.60973 35.1737 8.4791 35.2742C8.34848 35.3748 8.23897 35.5001 8.15684 35.643L7.45166 36.8644C7.10371 37.4669 7.31084 38.2403 7.91348 38.5884L15.5571 43.0014C15.7005 43.0846 15.859 43.1386 16.0234 43.1601C16.1877 43.1817 16.3548 43.1704 16.5147 43.127C16.675 43.0846 16.8253 43.0108 16.9568 42.91C17.0884 42.8091 17.1987 42.6832 17.2813 42.5395L17.9864 41.3181C17.9995 41.2954 18.0105 41.2721 18.022 41.2488H25.2155L30.9277 44.5468C31.3766 44.8066 31.8861 44.9434 32.4048 44.9433C33.4299 44.9432 34.4283 44.4116 34.9767 43.4618C35.3652 42.7888 35.4716 42.0044 35.2788 41.2488H43.8438C45.0534 41.2488 46.0376 40.2646 46.0376 39.055V28.9357C46.0376 28.7775 45.9895 28.6229 45.8998 28.4926C45.81 28.3622 45.6827 28.2622 45.5349 28.2058C45.387 28.1494 45.2254 28.1392 45.0717 28.1766C44.9179 28.214 44.7791 28.2973 44.6736 28.4153L44.4207 28.6986L41.954 27.5598C41.8397 27.5069 41.7144 27.4825 41.5886 27.4886C41.4629 27.4947 41.3405 27.531 41.2318 27.5946C41.1232 27.6582 41.0315 27.7471 40.9646 27.8537C40.8977 27.9604 40.8576 28.0816 40.8477 28.2071L40.4632 33.0555L34.9551 32.1783C34.7783 32.1502 34.5971 32.1836 34.442 32.273L32.606 33.3314L34.4122 30.4875L38.2134 31.3775ZM23.0646 2.76504V6.92783C23.0644 7.05888 23.0123 7.18453 22.9197 7.2772C22.827 7.36988 22.7014 7.42201 22.5703 7.42217H18.4074L23.0646 2.76504ZM23.3304 28.9372L16.2071 24.8246L16.6119 24.1235L23.7352 28.2361L23.3304 28.9372ZM16.0784 41.4979L8.95508 37.3854L9.35986 36.6844L16.4831 40.797L16.0784 41.4979ZM10.4511 35.5103C10.5438 33.845 11.1152 32.0312 12.0851 30.3513C13.055 28.6715 14.3399 27.2696 15.7357 26.3567L22.2391 30.1114C22.1464 31.7767 21.5749 33.5904 20.6051 35.2703C19.6352 36.9503 18.3501 38.352 16.9543 39.2649L10.4511 35.5103ZM18.9846 39.6864C19.4358 39.298 19.8688 38.8659 20.2789 38.3986L22.5094 39.6864H18.9846ZM33.6236 42.6807C33.2372 43.35 32.3783 43.5799 31.7092 43.1937L21.2538 37.1574C21.5046 36.7992 21.7397 36.4303 21.9583 36.0517C22.2073 35.6196 22.4346 35.1755 22.6394 34.7208L33.1106 40.7665C33.4327 40.9523 33.6638 41.2549 33.7611 41.6182C33.8584 41.9812 33.8096 42.3586 33.6236 42.6807ZM34.9827 33.765L41.0524 34.7316C41.1589 34.7486 41.2677 34.7433 41.372 34.7162C41.4763 34.689 41.5738 34.6406 41.6585 34.574C41.7432 34.5073 41.8132 34.4239 41.8641 34.3289C41.915 34.2339 41.9456 34.1294 41.9542 34.022L42.3168 29.4482L44.2908 30.3597C44.3496 30.3868 44.4115 30.4066 44.4752 30.4186V39.0551C44.4752 39.4031 44.192 39.6864 43.8439 39.6864H34.2867C34.1627 39.5849 34.0306 39.4935 33.8919 39.4132L28.6334 36.3772H40.1243C40.3315 36.3772 40.5302 36.2948 40.6767 36.1483C40.8233 36.0018 40.9056 35.8031 40.9056 35.5959C40.9056 35.3887 40.8233 35.19 40.6767 35.0435C40.5302 34.897 40.3315 34.8147 40.1243 34.8147H33.1619L34.9827 33.765ZM33.3908 29.1816L29.8132 34.8147H25.927L23.2111 33.2467C23.5031 32.3458 23.6921 31.4419 23.772 30.5645C23.9312 30.5218 24.0803 30.448 24.211 30.3475C24.3416 30.2469 24.4511 30.1216 24.5332 29.9787L25.2385 28.7571C25.5863 28.1546 25.3791 27.3812 24.7766 27.0333L17.3026 22.7182V8.98467H22.5703C23.7044 8.98467 24.6271 8.06201 24.6271 6.92783V1.66016H43.8439C44.192 1.66016 44.4752 1.94336 44.4752 2.2915V23.1343L43.1305 24.8328L39.5021 24.1948C39.4008 24.1771 39.2971 24.1794 39.1967 24.2018C39.0964 24.2242 39.0015 24.2662 38.9174 24.3253C38.8334 24.3845 38.7618 24.4596 38.7068 24.5465C38.6518 24.6333 38.6145 24.7302 38.597 24.8314L37.7626 29.6675L34.2285 28.84C34.0707 28.8029 33.9053 28.8159 33.7551 28.8771C33.605 28.9383 33.4777 29.0448 33.3908 29.1816ZM27.1687 10.0144C27.1687 9.80715 27.251 9.60844 27.3975 9.46193C27.544 9.31542 27.7427 9.2331 27.9499 9.2331H41.1009C41.3081 9.2331 41.5068 9.31542 41.6533 9.46193C41.7998 9.60844 41.8821 9.80715 41.8821 10.0144C41.8821 10.2216 41.7998 10.4203 41.6533 10.5668C41.5068 10.7133 41.3081 10.7956 41.1009 10.7956H27.9499C27.7427 10.7956 27.544 10.7133 27.3975 10.5668C27.251 10.4203 27.1687 10.2216 27.1687 10.0144ZM30.802 31.3323C30.802 31.5395 30.7196 31.7382 30.5731 31.8847C30.4266 32.0313 30.2279 32.1136 30.0207 32.1136H25.815C25.6078 32.1136 25.4091 32.0313 25.2626 31.8847C25.1161 31.7382 25.0338 31.5395 25.0338 31.3323C25.0338 31.1251 25.1161 30.9264 25.2626 30.7799C25.4091 30.6334 25.6078 30.5511 25.815 30.5511H30.0207C30.2279 30.5511 30.4266 30.6334 30.5731 30.7799C30.7196 30.9264 30.802 31.1251 30.802 31.3323ZM36.8553 27.0687C36.8553 27.2759 36.773 27.4747 36.6265 27.6212C36.4799 27.7677 36.2812 27.85 36.074 27.85H27.1816C26.9744 27.85 26.7757 27.7677 26.6292 27.6212C26.4827 27.4747 26.4004 27.2759 26.4004 27.0687C26.4004 26.8615 26.4827 26.6628 26.6292 26.5163C26.7757 26.3698 26.9744 26.2875 27.1816 26.2875H36.074C36.2812 26.2875 36.4799 26.3698 36.6265 26.5163C36.773 26.6628 36.8553 26.8615 36.8553 27.0687ZM41.1009 23.5863H20.6771C20.4699 23.5863 20.2711 23.504 20.1246 23.3575C19.9781 23.211 19.8958 23.0123 19.8958 22.8051C19.8958 22.5979 19.9781 22.3992 20.1246 22.2527C20.2711 22.1061 20.4699 22.0238 20.6771 22.0238H41.1009C41.3081 22.0238 41.5068 22.1061 41.6533 22.2527C41.7998 22.3992 41.8821 22.5979 41.8821 22.8051C41.8821 23.0123 41.7998 23.211 41.6533 23.3575C41.5068 23.504 41.3081 23.5863 41.1009 23.5863ZM23.002 14.2779C23.002 14.0707 23.0843 13.872 23.2308 13.7255C23.3773 13.579 23.576 13.4967 23.7832 13.4967H41.1009C41.3081 13.4967 41.5068 13.579 41.6533 13.7255C41.7998 13.872 41.8821 14.0707 41.8821 14.2779C41.8821 14.4851 41.7998 14.6838 41.6533 14.8304C41.5068 14.9769 41.3081 15.0592 41.1009 15.0592H23.7832C23.576 15.0592 23.3773 14.9769 23.2308 14.8304C23.0843 14.6838 23.002 14.4851 23.002 14.2779ZM20.9187 18.5415C20.9187 18.3343 21.001 18.1356 21.1475 17.9891C21.294 17.8426 21.4927 17.7603 21.6999 17.7603H41.1009C41.3081 17.7603 41.5068 17.8426 41.6533 17.9891C41.7998 18.1356 41.8821 18.3343 41.8821 18.5415C41.8821 18.7487 41.7998 18.9474 41.6533 19.0939C41.5068 19.2404 41.3081 19.3228 41.1009 19.3228H21.6999C21.4927 19.3228 21.294 19.2404 21.1475 19.0939C21.001 18.9474 20.9187 18.7487 20.9187 18.5415ZM27.1687 5.75078C27.1687 5.54358 27.251 5.34487 27.3975 5.19835C27.544 5.05184 27.7427 4.96953 27.9499 4.96953H41.1009C41.3081 4.96953 41.5068 5.05184 41.6533 5.19835C41.7998 5.34487 41.8821 5.54358 41.8821 5.75078C41.8821 5.95798 41.7998 6.1567 41.6533 6.30321C41.5068 6.44972 41.3081 6.53203 41.1009 6.53203H27.9499C27.7427 6.53203 27.544 6.44972 27.3975 6.30321C27.251 6.1567 27.1687 5.95798 27.1687 5.75078ZM15.0294 45.5358H14.7961V44.9542C14.7961 43.9147 13.9505 43.0691 12.911 43.0691H7.41338C6.37393 43.0691 5.52832 43.9147 5.52832 44.9542V45.5358H5.29502C4.55996 45.5358 3.96191 46.1339 3.96191 46.8689V48.5691C3.96191 49.3042 4.55996 49.9022 5.29502 49.9022H15.0294C15.7646 49.9022 16.3626 49.3042 16.3626 48.5691V46.8689C16.3626 46.1339 15.7646 45.5358 15.0294 45.5358ZM7.09082 44.9542C7.09082 44.7794 7.23848 44.6316 7.41338 44.6316H12.911C13.0859 44.6316 13.2336 44.7794 13.2336 44.9542V45.5358H7.09082V44.9542ZM14.8001 48.3398H5.52441V47.0983H14.8001V48.3398Z" fill="#B79539"/>
</svg>
