<svg width="51" height="50" viewBox="0 0 51 50" fill="none" xmlns="http://www.w3.org/2000/svg">
<path d="M45.7565 33.9781C44.6352 32.9845 43.1749 32.7187 41.6448 33.2292L33.6733 35.889C33.2773 34.8672 32.4164 34.0843 31.3263 33.8052C27.8527 32.914 25.7346 32.1791 24.3332 31.6926C21.1261 30.5799 20.9217 30.599 17.0435 32.378C15.8663 32.918 14.2899 33.6409 12.1272 34.554L11.4221 32.8495C11.3528 32.682 11.2198 32.5489 11.0524 32.4794C10.8849 32.4099 10.6967 32.4097 10.5292 32.479L5.25566 34.6576C5.17265 34.6919 5.09722 34.7423 5.03366 34.8057C4.9701 34.8692 4.91967 34.9446 4.88524 35.0275C4.85081 35.1105 4.83306 35.1994 4.83301 35.2892C4.83295 35.379 4.85059 35.468 4.88492 35.551L10.6872 49.5777C10.7565 49.7452 10.8896 49.8783 11.057 49.9478C11.2244 50.0172 11.4126 50.0174 11.5802 49.9482L16.8537 47.7696C17.0213 47.7003 17.1545 47.5672 17.224 47.3997C17.2935 47.2322 17.2937 47.0439 17.2244 46.8763L16.6215 45.4188L19.3887 43.9542C23.1722 45.403 26.0322 46.0567 28.6612 46.0566C29.0294 46.0566 29.3937 46.0438 29.7547 46.0185C32.6104 45.8186 35.1448 44.8271 38.3534 43.5719C40.0705 42.9001 42.0167 42.1388 44.356 41.3585C45.8866 40.8476 46.8949 39.7573 47.1948 38.2886C47.5138 36.7269 46.9492 35.0349 45.7565 33.9781ZM11.6897 48.4235L6.41007 35.6605L10.4197 34.0039L15.1113 45.3458C15.116 45.3582 15.1211 45.3704 15.1266 45.3826L15.6992 46.7669L11.6897 48.4235ZM45.855 38.0151C45.7149 38.7012 45.2659 39.6131 43.9231 40.0613C41.5509 40.8527 39.5875 41.6208 37.8552 42.2984C31.3682 44.8362 28.4076 45.9944 19.592 42.5669C19.5006 42.5313 19.4026 42.5158 19.3047 42.5215C19.2067 42.5272 19.1111 42.5539 19.0244 42.5998L16.0963 44.1494L12.6499 35.8177C14.8361 34.8948 16.4265 34.1655 17.6137 33.6208C19.4119 32.796 20.3146 32.3819 21.0477 32.3105C21.747 32.2425 22.4165 32.4749 23.8848 32.9845C25.3076 33.4783 27.4578 34.2245 30.9866 35.1297C31.8023 35.3387 32.4049 36.0186 32.522 36.8618L32.5225 36.8644C32.558 37.1258 32.5422 37.3917 32.476 37.6471C32.3394 38.1797 32.001 38.6284 31.5232 38.9108C31.0454 39.1932 30.4887 39.2735 29.9559 39.1367L22.6615 37.2654C22.4859 37.2203 22.2995 37.2469 22.1434 37.3392C21.9873 37.4315 21.8743 37.5821 21.8292 37.7577C21.7842 37.9334 21.8107 38.1198 21.9031 38.2759C21.9954 38.432 22.1459 38.545 22.3216 38.59L29.616 40.4614C29.8954 40.5333 30.1828 40.5697 30.4714 40.5699C31.0794 40.5699 31.68 40.4067 32.2191 40.088C33.0115 39.6195 33.5731 38.8734 33.8003 37.9877C33.8622 37.7473 33.8975 37.5009 33.9057 37.2529L42.0776 34.5263C43.4196 34.0785 44.3257 34.5375 44.8495 35.0015C45.6706 35.729 46.0745 36.94 45.855 38.0151ZM13.2126 20.7175H19.3746V24.917C19.3746 25.0068 19.3923 25.0957 19.4267 25.1786C19.461 25.2616 19.5114 25.337 19.5749 25.4005C19.6384 25.464 19.7138 25.5143 19.7967 25.5487C19.8797 25.583 19.9686 25.6007 20.0584 25.6007H22.8444C23.789 28.0255 25.6291 30.1091 28.3954 31.9019C28.5061 31.9738 28.6353 32.0121 28.7672 32.0121C28.8992 32.0121 29.0284 31.9738 29.1391 31.9019C31.9055 30.1091 33.7456 28.0254 34.6902 25.6007H37.4762C37.6575 25.6007 37.8315 25.5287 37.9597 25.4005C38.0879 25.2722 38.16 25.0983 38.16 24.917V20.7175H44.3221C44.5035 20.7175 44.6774 20.6455 44.8056 20.5173C44.9338 20.389 45.0059 20.2151 45.0059 20.0338V13.2792C45.0059 10.6446 42.8637 8.50122 40.2306 8.50122H39.9498C40.891 7.60239 41.4792 6.33683 41.4792 4.93574C41.4792 2.2141 39.2662 0 36.5461 0C35.2513 0 34.0279 0.497165 33.1013 1.39991C32.4945 1.99121 32.0595 2.7144 31.8216 3.50589C30.95 2.91313 29.8985 2.56616 28.7672 2.56616C27.636 2.56616 26.5846 2.91352 25.7132 3.50677C25.4752 2.71499 25.0403 1.9915 24.4332 1.39991C23.5065 0.497165 22.2832 0 20.9884 0C18.2684 0 16.0553 2.2142 16.0553 4.93574C16.0553 6.33683 16.6435 7.60239 17.5847 8.50122H17.3066C14.6721 8.50122 12.5286 10.6446 12.5286 13.2792V20.0338C12.5287 20.2151 12.6008 20.389 12.729 20.5172C12.8573 20.6455 13.0312 20.7175 13.2126 20.7175ZM28.7673 30.5074C25.1504 28.0431 23.4114 25.0138 23.4616 21.2653C24.8218 20.0073 26.561 19.3286 28.7673 19.1935C30.9737 19.3286 32.7129 20.0072 34.073 21.2653C34.1233 25.0137 32.3844 28.0431 28.7673 30.5074ZM36.7924 24.2332H35.119C35.3701 23.1951 35.4747 22.0995 35.4328 20.942C35.4266 20.7685 35.3545 20.6038 35.2313 20.4814C33.6112 18.873 31.4498 17.9796 28.8071 17.8258C28.7806 17.8243 28.7541 17.8243 28.7277 17.8258C26.0849 17.9796 23.9235 18.873 22.3035 20.4814C22.1803 20.6038 22.1082 20.7684 22.1019 20.942C22.0601 22.0995 22.1648 23.1952 22.4158 24.2332H20.7424V17.3541C20.7424 15.2034 22.4922 13.4536 24.6429 13.4536H32.8923C35.043 13.4536 36.7927 15.2034 36.7927 17.3541V24.2332H36.7924ZM40.2307 9.86874C42.1098 9.86874 43.6385 11.3987 43.6385 13.2792V19.35H38.1601V17.3541C38.1601 14.4493 35.7968 12.0861 32.892 12.0861H32.3712C33.0454 11.4897 33.5717 10.73 33.8856 9.86874H40.2307ZM36.5462 1.36742C38.5122 1.36742 40.1116 2.96812 40.1116 4.93574C40.1116 6.9018 38.5122 8.50122 36.5462 8.50122C35.6743 8.50122 34.8498 8.18909 34.1969 7.61873C34.1149 6.4745 33.6788 5.42713 32.9964 4.58623C33.1686 2.76244 34.6822 1.36742 36.5462 1.36742ZM32.8426 7.91864C32.8424 7.93165 32.843 7.94457 32.8436 7.95748C32.8438 7.97549 32.845 7.9932 32.845 8.0112C32.845 10.2581 31.0158 12.0861 28.7673 12.0861C26.5205 12.0861 24.6925 10.2581 24.6925 8.0112C24.6925 5.76275 26.5204 3.93358 28.7673 3.93358C30.9848 3.93358 32.793 5.71295 32.8426 7.91864ZM17.4231 4.93574C17.4231 2.96822 19.0226 1.36742 20.9886 1.36742C22.8533 1.36742 24.3674 2.76362 24.5385 4.58868C23.858 5.4287 23.423 6.4745 23.3408 7.61687C22.6898 8.1883 21.8642 8.50122 20.9886 8.50122C19.0226 8.50122 17.4231 6.9018 17.4231 4.93574ZM13.8964 13.2792C13.8964 11.3987 15.4264 9.86874 17.3068 9.86874H23.6518C23.9655 10.7301 24.4915 11.4898 25.1654 12.0861H24.6427C21.7379 12.0861 19.3746 14.4493 19.3746 17.3541V19.35H13.8963L13.8964 13.2792ZM31.6237 23.0085L28.3626 26.7789C28.2961 26.8558 28.2133 26.9168 28.1203 26.9576C28.0272 26.9985 27.9263 27.018 27.8247 27.015C27.7231 27.0119 27.6235 26.9862 27.5331 26.9398C27.4427 26.8933 27.3638 26.8274 27.3021 26.7466L25.8876 24.8947C25.7782 24.7505 25.7304 24.5688 25.7547 24.3895C25.779 24.2101 25.8734 24.0478 26.0172 23.9379C26.1611 23.8281 26.3426 23.7797 26.522 23.8035C26.7014 23.8272 26.8641 23.9211 26.9744 24.0646L27.8785 25.2484L30.5894 22.114C30.6481 22.0461 30.7196 21.9904 30.7999 21.9501C30.8802 21.9098 30.9676 21.8858 31.0571 21.8793C31.1467 21.8728 31.2367 21.884 31.3219 21.9123C31.4071 21.9406 31.4859 21.9854 31.5539 22.0442C31.6218 22.1029 31.6775 22.1744 31.7177 22.2547C31.758 22.3349 31.7821 22.4223 31.7885 22.5119C31.795 22.6014 31.7838 22.6914 31.7555 22.7766C31.7272 22.8618 31.6825 22.9406 31.6237 23.0085Z" fill="#B79539"/>
</svg>
