<svg width="50" height="50" viewBox="0 0 50 50" fill="none" xmlns="http://www.w3.org/2000/svg">
<g clip-path="url(#clip0_2028_91)">
<path d="M45.1387 44.4445H40.9721V21.5278C40.9721 21.3436 40.8989 21.167 40.7687 21.0368C40.6384 20.9065 40.4618 20.8334 40.2776 20.8334H30.5554V4.86113C30.5554 4.67695 30.4822 4.50032 30.352 4.37009C30.2218 4.23985 30.0451 4.16669 29.8609 4.16669H11.8054C11.6212 4.16669 11.4446 4.23985 11.3143 4.37009C11.1841 4.50032 11.1109 4.67695 11.1109 4.86113V44.4445H4.86095C4.67677 44.4445 4.50014 44.5176 4.3699 44.6479C4.23967 44.7781 4.1665 44.9547 4.1665 45.1389C4.1665 45.3231 4.23967 45.4997 4.3699 45.63C4.50014 45.7602 4.67677 45.8334 4.86095 45.8334H45.1387C45.3229 45.8334 45.4995 45.7602 45.6298 45.63C45.76 45.4997 45.8332 45.3231 45.8332 45.1389C45.8332 44.9547 45.76 44.7781 45.6298 44.6479C45.4995 44.5176 45.3229 44.4445 45.1387 44.4445ZM18.7498 44.4445H15.9721V38.1945C15.9721 38.0103 16.0452 37.8336 16.1755 37.7034C16.3057 37.5732 16.4823 37.5 16.6665 37.5H18.0554C18.2396 37.5 18.4162 37.5732 18.5464 37.7034C18.6767 37.8336 18.7498 38.0103 18.7498 38.1945V44.4445ZM21.5276 21.5278V44.4445H20.1387V38.1945C20.1387 37.0439 19.206 36.1111 18.0554 36.1111H16.6665C15.5159 36.1111 14.5832 37.0439 14.5832 38.1945V44.4445H12.4998V5.55558H29.1665V20.8334H22.2221C22.0379 20.8334 21.8612 20.9065 21.731 21.0368C21.6008 21.167 21.5276 21.3436 21.5276 21.5278ZM39.5832 44.4445H22.9165V22.2222H39.5832V44.4445Z" fill="#B79539"/>
<path d="M26.3886 13.8888H22.2219C22.0377 13.8888 21.8611 13.962 21.7309 14.0922C21.6006 14.2225 21.5275 14.3991 21.5275 14.5833V18.75C21.5275 18.9341 21.6006 19.1108 21.7309 19.241C21.8611 19.3712 22.0377 19.4444 22.2219 19.4444H26.3886C26.5727 19.4444 26.7494 19.3712 26.8796 19.241C27.0098 19.1108 27.083 18.9341 27.083 18.75V14.5833C27.083 14.3991 27.0098 14.2225 26.8796 14.0922C26.7494 13.962 26.5727 13.8888 26.3886 13.8888ZM25.6941 18.0555H22.9163V15.2777H25.6941V18.0555ZM26.3886 6.9444H22.2219C22.0377 6.9444 21.8611 7.01756 21.7309 7.1478C21.6006 7.27803 21.5275 7.45466 21.5275 7.63884V11.8055C21.5275 11.9897 21.6006 12.1663 21.7309 12.2966C21.8611 12.4268 22.0377 12.5 22.2219 12.5H26.3886C26.5727 12.5 26.7494 12.4268 26.8796 12.2966C27.0098 12.1663 27.083 11.9897 27.083 11.8055V7.63884C27.083 7.45466 27.0098 7.27803 26.8796 7.1478C26.7494 7.01756 26.5727 6.9444 26.3886 6.9444ZM25.6941 11.1111H22.9163V8.33329H25.6941V11.1111ZM19.4441 13.8888H15.2775C15.0933 13.8888 14.9166 13.962 14.7864 14.0922C14.6562 14.2225 14.583 14.3991 14.583 14.5833V18.75C14.583 18.9341 14.6562 19.1108 14.7864 19.241C14.9166 19.3712 15.0933 19.4444 15.2775 19.4444H19.4441C19.6283 19.4444 19.8049 19.3712 19.9352 19.241C20.0654 19.1108 20.1386 18.9341 20.1386 18.75V14.5833C20.1386 14.3991 20.0654 14.2225 19.9352 14.0922C19.8049 13.962 19.6283 13.8888 19.4441 13.8888ZM18.7497 18.0555H15.9719V15.2777H18.7497V18.0555ZM19.4441 6.9444H15.2775C15.0933 6.9444 14.9166 7.01756 14.7864 7.1478C14.6562 7.27803 14.583 7.45466 14.583 7.63884V11.8055C14.583 11.9897 14.6562 12.1663 14.7864 12.2966C14.9166 12.4268 15.0933 12.5 15.2775 12.5H19.4441C19.6283 12.5 19.8049 12.4268 19.9352 12.2966C20.0654 12.1663 20.1386 11.9897 20.1386 11.8055V7.63884C20.1386 7.45466 20.0654 7.27803 19.9352 7.1478C19.8049 7.01756 19.6283 6.9444 19.4441 6.9444ZM18.7497 11.1111H15.9719V8.33329H18.7497V11.1111ZM19.4441 20.8333H15.2775C15.0933 20.8333 14.9166 20.9065 14.7864 21.0367C14.6562 21.1669 14.583 21.3436 14.583 21.5277V25.6944C14.583 25.8786 14.6562 26.0552 14.7864 26.1854C14.9166 26.3157 15.0933 26.3888 15.2775 26.3888H19.4441C19.6283 26.3888 19.8049 26.3157 19.9352 26.1854C20.0654 26.0552 20.1386 25.8786 20.1386 25.6944V21.5277C20.1386 21.3436 20.0654 21.1669 19.9352 21.0367C19.8049 20.9065 19.6283 20.8333 19.4441 20.8333ZM18.7497 25H15.9719V22.2222H18.7497V25ZM19.4441 27.7777H15.2775C15.0933 27.7777 14.9166 27.8509 14.7864 27.9811C14.6562 28.1114 14.583 28.288 14.583 28.4722V32.6388C14.583 32.823 14.6562 32.9997 14.7864 33.1299C14.9166 33.2601 15.0933 33.3333 15.2775 33.3333H19.4441C19.6283 33.3333 19.8049 33.2601 19.9352 33.1299C20.0654 32.9997 20.1386 32.823 20.1386 32.6388V28.4722C20.1386 28.288 20.0654 28.1114 19.9352 27.9811C19.8049 27.8509 19.6283 27.7777 19.4441 27.7777ZM18.7497 31.9444H15.9719V29.1666H18.7497V31.9444ZM32.6386 36.1111H36.8052C36.9894 36.1111 37.166 36.0379 37.2963 35.9077C37.4265 35.7774 37.4997 35.6008 37.4997 35.4166V31.25C37.4997 31.0658 37.4265 30.8891 37.2963 30.7589C37.166 30.6287 36.9894 30.5555 36.8052 30.5555H32.6386C32.4544 30.5555 32.2778 30.6287 32.1475 30.7589C32.0173 30.8891 31.9441 31.0658 31.9441 31.25V35.4166C31.9441 35.6008 32.0173 35.7774 32.1475 35.9077C32.2778 36.0379 32.4544 36.1111 32.6386 36.1111ZM33.333 31.9444H36.1108V34.7222H33.333V31.9444ZM32.6386 29.1666H36.8052C36.9894 29.1666 37.166 29.0935 37.2963 28.9632C37.4265 28.833 37.4997 28.6564 37.4997 28.4722V24.3055C37.4997 24.1213 37.4265 23.9447 37.2963 23.8145C37.166 23.6842 36.9894 23.6111 36.8052 23.6111H32.6386C32.4544 23.6111 32.2778 23.6842 32.1475 23.8145C32.0173 23.9447 31.9441 24.1213 31.9441 24.3055V28.4722C31.9441 28.6564 32.0173 28.833 32.1475 28.9632C32.2778 29.0935 32.4544 29.1666 32.6386 29.1666ZM33.333 25H36.1108V27.7777H33.333V25ZM32.6386 43.0555H36.8052C36.9894 43.0555 37.166 42.9823 37.2963 42.8521C37.4265 42.7219 37.4997 42.5452 37.4997 42.3611V38.1944C37.4997 38.0102 37.4265 37.8336 37.2963 37.7034C37.166 37.5731 36.9894 37.5 36.8052 37.5H32.6386C32.4544 37.5 32.2778 37.5731 32.1475 37.7034C32.0173 37.8336 31.9441 38.0102 31.9441 38.1944V42.3611C31.9441 42.5452 32.0173 42.7219 32.1475 42.8521C32.2778 42.9823 32.4544 43.0555 32.6386 43.0555ZM33.333 38.8888H36.1108V41.6666H33.333V38.8888ZM25.6941 36.1111H29.8608C30.045 36.1111 30.2216 36.0379 30.3518 35.9077C30.4821 35.7774 30.5552 35.6008 30.5552 35.4166V31.25C30.5552 31.0658 30.4821 30.8891 30.3518 30.7589C30.2216 30.6287 30.045 30.5555 29.8608 30.5555H25.6941C25.5099 30.5555 25.3333 30.6287 25.2031 30.7589C25.0728 30.8891 24.9997 31.0658 24.9997 31.25V35.4166C24.9997 35.6008 25.0728 35.7774 25.2031 35.9077C25.3333 36.0379 25.5099 36.1111 25.6941 36.1111ZM26.3886 31.9444H29.1663V34.7222H26.3886V31.9444ZM25.6941 29.1666H29.8608C30.045 29.1666 30.2216 29.0935 30.3518 28.9632C30.4821 28.833 30.5552 28.6564 30.5552 28.4722V24.3055C30.5552 24.1213 30.4821 23.9447 30.3518 23.8145C30.2216 23.6842 30.045 23.6111 29.8608 23.6111H25.6941C25.5099 23.6111 25.3333 23.6842 25.2031 23.8145C25.0728 23.9447 24.9997 24.1213 24.9997 24.3055V28.4722C24.9997 28.6564 25.0728 28.833 25.2031 28.9632C25.3333 29.0935 25.5099 29.1666 25.6941 29.1666ZM26.3886 25H29.1663V27.7777H26.3886V25ZM25.6941 43.0555H29.8608C30.045 43.0555 30.2216 42.9823 30.3518 42.8521C30.4821 42.7219 30.5552 42.5452 30.5552 42.3611V38.1944C30.5552 38.0102 30.4821 37.8336 30.3518 37.7034C30.2216 37.5731 30.045 37.5 29.8608 37.5H25.6941C25.5099 37.5 25.3333 37.5731 25.2031 37.7034C25.0728 37.8336 24.9997 38.0102 24.9997 38.1944V42.3611C24.9997 42.5452 25.0728 42.7219 25.2031 42.8521C25.3333 42.9823 25.5099 43.0555 25.6941 43.0555ZM26.3886 38.8888H29.1663V41.6666H26.3886V38.8888Z" fill="#B79539"/>
</g>
<defs>
<clipPath id="clip0_2028_91">
<rect width="50" height="50" fill="white"/>
</clipPath>
</defs>
</svg>
