<svg width="24" height="24" viewBox="0 0 24 24" fill="none" xmlns="http://www.w3.org/2000/svg">
<g clip-path="url(#clip0_2025_291)">
<g clip-path="url(#clip1_2025_291)">
<path d="M4.89054 15.9536C7.25771 18.7833 10.1073 21.0112 13.3597 22.5877C14.598 23.1745 16.254 23.8707 18.099 23.9901C18.2134 23.995 18.3228 24 18.4372 24C19.6755 24 20.6701 23.5723 21.4807 22.6921C21.4856 22.6871 21.4956 22.6772 21.5006 22.6672C21.789 22.3191 22.1172 22.0058 22.4604 21.6726C22.6941 21.4488 22.9328 21.2151 23.1616 20.9764C24.2208 19.8724 24.2208 18.47 23.1516 17.4007L20.1628 14.4119C19.6556 13.8848 19.0488 13.6063 18.4123 13.6063C17.7757 13.6063 17.1641 13.8848 16.6419 14.407L14.8615 16.1873C14.6974 16.0928 14.5283 16.0083 14.3692 15.9287C14.1703 15.8293 13.9863 15.7348 13.8222 15.6303C12.2009 14.6009 10.7289 13.2582 9.32153 11.5325C8.61039 10.6324 8.13297 9.8765 7.79978 9.10568C8.26725 8.68297 8.70487 8.24037 9.12759 7.80771C9.27678 7.65354 9.43094 7.49938 9.58511 7.34521C10.1222 6.80812 10.4106 6.18649 10.4106 5.55491C10.4106 4.92333 10.1272 4.3017 9.58511 3.76461L8.10313 2.28264C7.92908 2.10858 7.76497 1.93949 7.59588 1.76544C7.26766 1.42727 6.92452 1.07915 6.58635 0.765852C6.07412 0.263572 5.47238 0 4.83583 0C4.20425 0 3.59754 0.263572 3.06542 0.770825L1.2055 2.63075C0.529159 3.30709 0.146234 4.12764 0.0666646 5.0775C-0.0278236 6.26606 0.190991 7.52922 0.75792 9.05595C1.62821 11.4182 2.94109 13.6113 4.89054 15.9536ZM1.28009 5.18193C1.33977 4.52051 1.59339 3.9685 2.07081 3.49109L3.92079 1.64111C4.20923 1.36262 4.5275 1.2184 4.83583 1.2184C5.13919 1.2184 5.44752 1.36262 5.73098 1.65106C6.06418 1.95939 6.37748 2.28264 6.71565 2.62578C6.88473 2.79983 7.05879 2.97389 7.23285 3.15292L8.71482 4.63489C9.02315 4.94322 9.18229 5.25653 9.18229 5.56486C9.18229 5.87319 9.02315 6.18649 8.71482 6.49482C8.56066 6.64898 8.40649 6.80812 8.25233 6.96229C7.78983 7.42976 7.35718 7.87236 6.87976 8.29507L6.8549 8.31993C6.44213 8.7327 6.50678 9.12557 6.60624 9.42395C6.61122 9.43887 6.61619 9.44882 6.62116 9.46374C7.00409 10.3838 7.53621 11.259 8.36671 12.3034C9.85863 14.1434 11.4301 15.5707 13.1607 16.6697C13.3746 16.809 13.6033 16.9184 13.8172 17.0278C14.0161 17.1272 14.2001 17.2217 14.3642 17.3261C14.3841 17.3361 14.399 17.346 14.4189 17.356C14.583 17.4405 14.7422 17.4803 14.9013 17.4803C15.2992 17.4803 15.5578 17.2267 15.6423 17.1421L17.5022 15.2822C17.7907 14.9938 18.104 14.8396 18.4123 14.8396C18.7902 14.8396 19.0986 15.0734 19.2925 15.2822L22.2913 18.276C22.8881 18.8728 22.8831 19.5193 22.2764 20.1509C22.0675 20.3746 21.8487 20.5885 21.6149 20.8123C21.2668 21.1504 20.9038 21.4986 20.5756 21.8914C20.0037 22.5081 19.3224 22.7965 18.4421 22.7965C18.3576 22.7965 18.2681 22.7915 18.1835 22.7866C16.5524 22.6821 15.0356 22.0456 13.8968 21.5035C10.8035 20.0066 8.08821 17.8831 5.83542 15.1877C3.98047 12.9548 2.73223 10.8761 1.9067 8.64816C1.39447 7.28056 1.20052 6.18152 1.28009 5.18193Z" fill="#B79539"/>
</g>
</g>
<defs>
<clipPath id="clip0_2025_291">
<rect width="24" height="24" fill="white"/>
</clipPath>
<clipPath id="clip1_2025_291">
<rect width="24" height="24" fill="white"/>
</clipPath>
</defs>
</svg>
