<svg width="24" height="24" viewBox="0 0 24 24" fill="none" xmlns="http://www.w3.org/2000/svg">
<path d="M21.4501 4H2.74862C1.64679 4 0.754395 4.89793 0.754395 5.99423V17.9596C0.754395 19.0624 1.65335 19.9538 2.74862 19.9538H21.4501C22.5427 19.9538 23.4443 19.0662 23.4443 17.9596V5.99423C23.4443 4.89988 22.5554 4 21.4501 4ZM21.1708 5.32949L13.5095 12.9504C13.1328 13.3271 12.632 13.5345 12.0993 13.5345C11.5667 13.5345 11.0659 13.3271 10.688 12.9492L3.0279 5.32949H21.1708ZM2.08388 17.689V6.26567L7.82895 11.9805L2.08388 17.689ZM3.02875 18.6243L8.77155 12.9181L9.74912 13.8905C10.3769 14.5183 11.2116 14.864 12.0993 14.864C12.9871 14.864 13.8218 14.5183 14.4483 13.8917L15.4271 12.9181L21.1699 18.6243H3.02875ZM22.1148 17.689L16.3697 11.9805L22.1148 6.26567V17.689Z" fill="#B79539"/>
</svg>
