<svg width="463" height="463" viewBox="0 0 463 463" fill="none" xmlns="http://www.w3.org/2000/svg">
<g opacity="0.02" clip-path="url(#clip0_36_893)">
<path d="M353.858 290.556C354.818 290.78 355.813 290.806 356.784 290.632C357.754 290.458 358.679 290.087 359.501 289.543C360.323 288.998 361.025 288.292 361.564 287.466C362.103 286.641 362.468 285.714 362.636 284.742L370.433 239.549L401.132 244.948C402.417 245.173 403.739 245.048 404.958 244.584C406.177 244.12 407.248 243.336 408.058 242.314L424.749 221.231C425.761 219.953 426.312 218.37 426.312 216.74V21.2193C426.311 10.0178 417.197 0.904297 405.996 0.904297H226.232C220.727 0.904297 215.76 2.96157 211.868 6.85367L151.706 67.0165C147.813 70.9095 145.755 75.8768 145.755 81.3822V210.265C144.51 211.206 143.466 212.388 142.687 213.741L136.156 225.051C134.614 227.719 134.193 230.89 134.983 233.868C121.284 243.533 108.829 257.449 99.3785 273.818C89.9277 290.188 84.1022 307.934 82.5829 324.629C81.109 325.025 79.7277 325.709 78.5181 326.639C77.3086 327.57 76.2945 328.731 75.534 330.054L69.004 341.364C65.782 346.943 67.7 354.105 73.2804 357.328L144.061 398.193C145.388 398.964 146.856 399.463 148.378 399.663C149.9 399.862 151.447 399.758 152.928 399.356C154.412 398.963 155.804 398.28 157.022 397.346C158.24 396.412 159.261 395.246 160.026 393.915L166.556 382.605C166.677 382.395 166.778 382.179 166.885 381.964H233.497L286.393 412.503C290.549 414.91 295.267 416.176 300.07 416.175C309.562 416.174 318.808 411.252 323.886 402.456C327.484 396.224 328.469 388.961 326.683 381.964H405.995C417.196 381.964 426.31 372.851 426.31 361.649V267.945C426.31 266.479 425.865 265.048 425.033 263.841C424.202 262.634 423.024 261.708 421.654 261.186C420.285 260.663 418.789 260.569 417.365 260.915C415.941 261.262 414.656 262.033 413.68 263.126L411.337 265.749L388.496 255.203C387.438 254.714 386.277 254.488 385.112 254.544C383.948 254.601 382.815 254.937 381.808 255.526C380.802 256.115 379.953 256.938 379.334 257.926C378.714 258.913 378.343 260.036 378.251 261.198L374.691 306.094L323.686 297.971C322.048 297.711 320.371 298.02 318.935 298.848L301.933 308.649L318.659 282.314L353.858 290.556ZM213.579 25.6043V64.1517C213.578 65.3652 213.096 66.5287 212.238 67.3869C211.38 68.2451 210.216 68.7278 209.003 68.7293H170.454L213.579 25.6043ZM216.041 267.958L150.08 229.876L153.828 223.384L219.789 261.467L216.041 267.958ZM148.888 384.271L82.9257 346.189L86.674 339.697L152.635 377.78L148.888 384.271ZM96.7786 328.825C97.6368 313.405 102.929 296.609 111.909 281.053C120.891 265.498 132.79 252.517 145.715 244.063L205.935 278.832C205.077 294.252 199.785 311.047 190.805 326.603C181.823 342.16 169.924 355.14 156.998 363.593L96.7786 328.825ZM175.799 367.496C179.978 363.9 183.986 359.898 187.784 355.571L208.438 367.496H175.799ZM311.357 395.223C307.778 401.421 299.825 403.55 293.629 399.974L196.812 344.078C199.134 340.761 201.311 337.345 203.336 333.838C205.641 329.838 207.746 325.725 209.642 321.515L306.606 377.498C309.589 379.219 311.728 382.02 312.63 385.384C313.53 388.745 313.078 392.241 311.357 395.223ZM323.942 312.664L380.147 321.615C381.133 321.772 382.14 321.723 383.106 321.472C384.072 321.221 384.975 320.772 385.759 320.155C386.544 319.538 387.192 318.765 387.663 317.886C388.134 317.006 388.418 316.038 388.498 315.043L391.855 272.691L410.135 281.131C410.679 281.382 411.253 281.565 411.842 281.676V361.65C411.842 364.873 409.22 367.496 405.996 367.496H317.497C316.348 366.556 315.125 365.71 313.841 364.966L265.147 336.852H371.553C373.472 336.852 375.312 336.09 376.668 334.733C378.025 333.377 378.787 331.537 378.787 329.618C378.787 327.699 378.025 325.859 376.668 324.503C375.312 323.146 373.472 322.384 371.553 322.384H307.081L323.942 312.664ZM309.201 270.222L276.072 322.384H240.085L214.937 307.864C217.641 299.522 219.39 291.152 220.13 283.028C221.604 282.632 222.985 281.948 224.195 281.017C225.405 280.087 226.419 278.926 227.179 277.603L233.71 266.291C236.931 260.711 235.012 253.55 229.433 250.328L160.224 210.37V83.198H209.003C219.504 83.198 228.048 74.6542 228.048 64.1517V15.373H405.996C409.22 15.373 411.842 17.9955 411.842 21.2193V214.223L399.39 229.952L365.791 224.044C364.853 223.88 363.892 223.902 362.963 224.109C362.034 224.316 361.156 224.705 360.377 225.253C359.599 225.8 358.936 226.496 358.426 227.3C357.917 228.105 357.572 229.001 357.41 229.939L349.683 274.721L316.958 267.059C315.496 266.715 313.964 266.835 312.574 267.402C311.184 267.969 310.005 268.955 309.201 270.222ZM251.583 92.7329C251.583 90.8142 252.346 88.9742 253.702 87.6175C255.059 86.2607 256.899 85.4986 258.818 85.4986H380.596C382.514 85.4986 384.355 86.2607 385.711 87.6175C387.068 88.9742 387.83 90.8142 387.83 92.7329C387.83 94.6516 387.068 96.4917 385.711 97.8484C384.355 99.2051 382.514 99.9673 380.596 99.9673H258.818C256.899 99.9673 255.059 99.2051 253.702 97.8484C252.346 96.4917 251.583 94.6516 251.583 92.7329ZM285.228 290.137C285.228 292.056 284.466 293.896 283.109 295.253C281.752 296.609 279.912 297.372 277.993 297.372H239.049C237.13 297.372 235.29 296.609 233.933 295.253C232.577 293.896 231.815 292.056 231.815 290.137C231.815 288.219 232.577 286.379 233.933 285.022C235.29 283.665 237.13 282.903 239.049 282.903H277.993C279.912 282.903 281.752 283.665 283.109 285.022C284.466 286.379 285.228 288.219 285.228 290.137ZM341.282 250.657C341.282 252.575 340.519 254.415 339.163 255.772C337.806 257.129 335.966 257.891 334.047 257.891H251.704C249.785 257.891 247.945 257.129 246.588 255.772C245.232 254.415 244.469 252.575 244.469 250.657C244.469 248.738 245.232 246.898 246.588 245.541C247.945 244.184 249.785 243.422 251.704 243.422H334.047C335.966 243.422 337.806 244.184 339.163 245.541C340.519 246.898 341.282 248.738 341.282 250.657ZM380.596 218.409H191.471C189.552 218.409 187.712 217.647 186.356 216.29C184.999 214.934 184.237 213.094 184.237 211.175C184.237 209.256 184.999 207.416 186.356 206.06C187.712 204.703 189.552 203.941 191.471 203.941H380.596C382.514 203.941 384.355 204.703 385.711 206.06C387.068 207.416 387.83 209.256 387.83 211.175C387.83 213.094 387.068 214.934 385.711 216.29C384.355 217.647 382.514 218.409 380.596 218.409ZM213 132.214C213 130.295 213.762 128.455 215.119 127.098C216.476 125.741 218.316 124.979 220.234 124.979H380.596C382.514 124.979 384.355 125.741 385.711 127.098C387.068 128.455 387.83 130.295 387.83 132.214C387.83 134.132 387.068 135.972 385.711 137.329C384.355 138.686 382.514 139.448 380.596 139.448H220.234C218.316 139.448 216.476 138.686 215.119 137.329C213.762 135.972 213 134.132 213 132.214ZM193.708 171.694C193.708 169.776 194.471 167.936 195.827 166.579C197.184 165.222 199.024 164.46 200.943 164.46H380.596C382.514 164.46 384.355 165.222 385.711 166.579C387.068 167.936 387.83 169.776 387.83 171.694C387.83 173.613 387.068 175.453 385.711 176.81C384.355 178.167 382.514 178.929 380.596 178.929H200.943C199.024 178.929 197.184 178.167 195.827 176.81C194.471 175.453 193.708 173.613 193.708 171.694ZM251.583 53.2522C251.583 51.3336 252.346 49.4935 253.702 48.1368C255.059 46.78 256.899 46.0179 258.818 46.0179H380.596C382.514 46.0179 384.355 46.78 385.711 48.1368C387.068 49.4935 387.83 51.3336 387.83 53.2522C387.83 55.1709 387.068 57.011 385.711 58.3677C384.355 59.7244 382.514 60.4866 380.596 60.4866H258.818C256.899 60.4866 255.059 59.7244 253.702 58.3677C252.346 57.011 251.583 55.1709 251.583 53.2522ZM139.174 421.662H137.013V416.276C137.013 406.651 129.183 398.82 119.558 398.82H68.6495C59.0242 398.82 51.1939 406.651 51.1939 416.276V421.662H49.0335C42.2269 421.662 36.689 427.2 36.689 434.006V449.75C36.689 456.557 42.2269 462.095 49.0335 462.095H139.174C145.981 462.095 151.519 456.557 151.519 449.75V434.006C151.519 427.2 145.981 421.662 139.174 421.662ZM65.6626 416.276C65.6626 414.657 67.0299 413.289 68.6495 413.289H119.558C121.177 413.289 122.545 414.657 122.545 416.276V421.662H65.6626V416.276ZM137.051 447.627H51.1577V436.131H137.051V447.627Z" fill="white"/>
</g>
<defs>
<clipPath id="clip0_36_893">
<rect width="463" height="463" fill="white"/>
</clipPath>
</defs>
</svg>
