<svg width="47" height="50" viewBox="0 0 47 50" fill="none" xmlns="http://www.w3.org/2000/svg">
<g clip-path="url(#clip0_36_805)">
<path d="M43.4959 15.1332C43.7502 15.2903 44.043 15.3714 44.3407 15.367C44.6384 15.3626 44.9288 15.273 45.1785 15.1084C45.4282 14.9438 45.6271 14.711 45.7523 14.4367C45.8775 14.1624 45.9238 13.8578 45.8861 13.5579C45.6863 13.5839 45.4939 13.6514 45.321 13.7563C45.148 13.8612 44.9983 14.0012 44.8811 14.1676C44.6918 14.42 44.5831 14.7252 44.5698 15.0423C44.4378 14.7546 44.2216 14.5153 43.9508 14.3569C43.78 14.2484 43.589 14.177 43.3898 14.147C43.1906 14.117 42.9874 14.1292 42.793 14.1827C42.8398 14.3816 42.9264 14.5685 43.0473 14.732C43.1682 14.8955 43.3209 15.032 43.4959 15.1332Z" fill="#B79539"/>
<path d="M3.56013 15.1332C3.30596 15.2906 3.01315 15.3718 2.71547 15.3675C2.41779 15.3632 2.12737 15.2736 1.8777 15.1089C1.62803 14.9443 1.42929 14.7113 1.30439 14.4369C1.17949 14.1624 1.13352 13.8577 1.17179 13.5579C1.37133 13.5839 1.56343 13.6514 1.73604 13.7563C1.90865 13.8613 2.05804 14.0013 2.17485 14.1676C2.36478 14.4198 2.4741 14.7251 2.48808 15.0423C2.6194 14.7547 2.83492 14.5154 3.10521 14.3569C3.27596 14.2484 3.46695 14.177 3.66619 14.147C3.86543 14.117 4.06862 14.1292 4.26301 14.1827C4.21676 14.3818 4.13044 14.569 4.00947 14.7326C3.88851 14.8962 3.73552 15.0326 3.56013 15.1332Z" fill="#B79539"/>
<path d="M45.1946 16.502C45.0053 16.7537 44.8966 17.0584 44.8832 17.3748C44.7501 17.0879 44.5342 16.8489 44.2642 16.6895C44.0936 16.5808 43.9025 16.5093 43.7032 16.4797C43.5039 16.45 43.3006 16.4628 43.1064 16.5172C43.2124 16.9087 43.4605 17.2449 43.8007 17.4581C44.141 17.6713 44.5482 17.7457 44.9403 17.6662C45.3324 17.5868 45.6803 17.3594 45.914 17.0299C46.1476 16.7005 46.2497 16.2933 46.1995 15.8905C45.9996 15.9167 45.8072 15.9846 45.6343 16.0898C45.4614 16.1951 45.3117 16.3354 45.1946 16.502Z" fill="#B79539"/>
<path d="M1.86162 16.502C2.05152 16.7536 2.16084 17.0582 2.17484 17.3748C2.30717 17.088 2.52245 16.8489 2.79198 16.6895C2.96265 16.5808 3.15371 16.5093 3.35304 16.4797C3.55236 16.45 3.75558 16.4628 3.94978 16.5172C3.90307 16.7156 3.81653 16.9021 3.69559 17.0649C3.57464 17.2278 3.42189 17.3636 3.24689 17.4638C2.90568 17.6574 2.50774 17.7212 2.12441 17.6438C1.74107 17.5664 1.3974 17.3529 1.155 17.0416C1.03095 16.8805 0.941075 16.695 0.891021 16.4969C0.840966 16.2988 0.831816 16.0923 0.864154 15.8905C1.06282 15.9175 1.25389 15.9858 1.42549 16.091C1.59708 16.1962 1.74553 16.3361 1.86162 16.502Z" fill="#B79539"/>
<path d="M45.48 18.7456C45.278 19.012 45.1621 19.3354 45.1481 19.6714C45.0079 19.3665 44.7788 19.1127 44.4918 18.9444C44.3108 18.8288 44.1083 18.7524 43.8969 18.7198C43.6855 18.6872 43.4698 18.6992 43.2632 18.755C43.3707 19.1713 43.6331 19.5291 43.9951 19.7529C44.3571 19.9768 44.7905 20.0494 45.2041 19.9554C45.4092 19.923 45.606 19.8497 45.783 19.7395C45.96 19.6293 46.1136 19.4845 46.2351 19.3136C46.3668 19.1427 46.4623 18.946 46.5156 18.7358C46.5688 18.5257 46.5787 18.3066 46.5446 18.0924C46.3323 18.1206 46.1281 18.1932 45.9448 18.3056C45.7616 18.418 45.6033 18.5678 45.48 18.7456Z" fill="#B79539"/>
<path d="M1.57823 18.7456C1.77627 19.0135 1.88882 19.3366 1.90078 19.6714C2.04158 19.3669 2.27054 19.1132 2.55706 18.9444C2.73808 18.8288 2.94058 18.7524 3.15197 18.7198C3.36336 18.6872 3.57909 18.6992 3.78571 18.755C3.67115 19.1678 3.40756 19.5214 3.04754 19.7455C2.68752 19.9696 2.25754 20.0476 1.84339 19.964C1.42923 19.8803 1.06135 19.6412 0.81315 19.2943C0.564948 18.9474 0.45467 18.5182 0.50432 18.0924C0.718188 18.1195 0.92414 18.1916 1.10904 18.3041C1.29394 18.4166 1.45374 18.5669 1.57823 18.7456Z" fill="#B79539"/>
<path d="M45.122 22.2444C45.0205 21.9144 44.8213 21.6241 44.5515 21.4132C44.3822 21.2712 44.1859 21.1661 43.9748 21.1045C43.7637 21.043 43.5424 21.0262 43.3247 21.0554C43.385 21.4927 43.6057 21.8908 43.9427 22.1698C44.2797 22.4489 44.7081 22.5884 45.142 22.5604C45.576 22.5324 45.9835 22.3389 46.283 22.0188C46.5825 21.6986 46.7518 21.2754 46.7571 20.8339C46.5375 20.8327 46.3201 20.8775 46.1183 20.9654C45.9165 21.0534 45.7348 21.1826 45.5844 21.3451C45.3439 21.5902 45.1827 21.9039 45.122 22.2444Z" fill="#B79539"/>
<path d="M1.93402 22.2444C2.03551 21.9144 2.23473 21.6241 2.50454 21.4132C2.674 21.2715 2.87033 21.1666 3.08136 21.105C3.29239 21.0435 3.51362 21.0266 3.73134 21.0554C3.67404 21.4949 3.45454 21.896 3.11721 22.1775C2.77989 22.4589 2.3499 22.5999 1.91418 22.5717C1.47845 22.5436 1.06951 22.3485 0.770007 22.0259C0.470506 21.7033 0.30279 21.2772 0.300781 20.8339C0.520091 20.8326 0.737296 20.8774 0.938777 20.9653C1.14026 21.0533 1.32168 21.1826 1.47165 21.3451C1.7128 21.5897 1.87419 21.9036 1.93402 22.2444Z" fill="#B79539"/>
<path d="M45.5448 24.0392C45.2748 24.2532 45.0758 24.5458 44.9743 24.878C44.9129 24.5355 44.7495 24.2203 44.5064 23.9749C44.3549 23.8117 44.1719 23.6821 43.9688 23.5942C43.7657 23.5062 43.5469 23.4618 43.3262 23.4637C43.3266 23.9113 43.495 24.342 43.7972 24.6679C44.0995 24.9938 44.5127 25.1904 44.9527 25.2177C45.3927 25.245 45.8264 25.1009 46.1654 24.8147C46.5044 24.5286 46.7232 24.1219 46.7772 23.6776C46.5583 23.648 46.3358 23.6649 46.1237 23.7272C45.9116 23.7894 45.7144 23.8957 45.5448 24.0392Z" fill="#B79539"/>
<path d="M1.51097 24.0392C1.78303 24.2523 1.98413 24.5451 2.08708 24.878C2.14855 24.5355 2.31187 24.2203 2.55505 23.9749C2.70665 23.8119 2.88968 23.6824 3.09273 23.5945C3.29578 23.5065 3.5145 23.462 3.73524 23.4637C3.73485 23.9113 3.56637 24.342 3.26416 24.6679C2.96195 24.9938 2.54874 25.1904 2.10872 25.2177C1.66871 25.245 1.23501 25.1009 0.896003 24.8147C0.556994 24.5286 0.338193 24.1219 0.28418 23.6776C0.502172 23.6486 0.723713 23.6658 0.934852 23.728C1.14599 23.7903 1.34215 23.8962 1.51097 24.0392Z" fill="#B79539"/>
<path d="M44.9913 27.0629C44.6581 27.2517 44.39 27.5398 44.2231 27.8883C44.2159 27.5007 44.0916 27.1246 43.867 26.811C43.7291 26.6043 43.5506 26.4288 43.3427 26.2956C43.1348 26.1623 42.902 26.0742 42.6589 26.0367C42.5824 26.5288 42.6933 27.032 42.9691 27.444C43.2449 27.856 43.6649 28.1459 44.1437 28.2546C44.6224 28.3634 45.124 28.2829 45.5464 28.0295C45.9688 27.7761 46.2803 27.3689 46.4176 26.8906C46.181 26.8175 45.9321 26.795 45.6866 26.8247C45.4411 26.8544 45.2043 26.9355 44.9913 27.0629Z" fill="#B79539"/>
<path d="M2.06448 27.0629C2.3982 27.251 2.6665 27.5393 2.83262 27.8883C2.8399 27.5007 2.9642 27.1246 3.18872 26.811C3.32699 26.6043 3.50585 26.4288 3.71407 26.2955C3.9223 26.1622 4.1554 26.0741 4.39875 26.0367C4.47136 26.5274 4.35814 27.0277 4.08192 27.437C3.80569 27.8463 3.38697 28.1341 2.91013 28.2424C2.43328 28.3506 1.93375 28.2714 1.51217 28.0205C1.09059 27.7697 0.778279 27.3659 0.638184 26.8906C0.874703 26.8174 1.12363 26.7949 1.36916 26.8245C1.61469 26.8542 1.85147 26.9353 2.06448 27.0629Z" fill="#B79539"/>
<path d="M43.8035 30.0637C43.4066 30.2037 43.0617 30.4641 42.8153 30.8097C42.879 30.3885 42.8139 29.9577 42.6289 29.5753C42.5157 29.3256 42.3529 29.1024 42.1508 28.9196C41.9487 28.7369 41.7116 28.5985 41.4543 28.5131C41.2836 29.033 41.3141 29.5993 41.5398 30.0971C41.7654 30.5949 42.1692 30.9868 42.6692 31.1932C43.1691 31.3995 43.7277 31.4048 44.2313 31.2081C44.735 31.0113 45.146 30.6272 45.3808 30.1338C45.1371 30.0115 44.871 29.9422 44.5994 29.9301C44.3279 29.9181 44.0568 29.9636 43.8035 30.0637Z" fill="#B79539"/>
<path d="M3.25398 30.0637C3.65015 30.2041 3.99438 30.4644 4.24026 30.8097C4.17744 30.3885 4.24247 29.9579 4.4267 29.5753C4.54019 29.3258 4.70305 29.1028 4.90514 28.92C5.10722 28.7373 5.34419 28.5988 5.60129 28.5131C5.77204 29.033 5.74149 29.5993 5.51583 30.0971C5.29018 30.5949 4.88637 30.9868 4.38643 31.1932C3.8865 31.3995 3.32795 31.4048 2.82429 31.2081C2.32063 31.0113 1.90963 30.6272 1.6748 30.1338C1.91884 30.0115 2.18527 29.9421 2.45714 29.9301C2.72901 29.918 3.00038 29.9635 3.25398 30.0637Z" fill="#B79539"/>
<path d="M42.3755 32.5023C41.979 32.6432 41.6348 32.9042 41.3892 33.2502C41.4521 32.829 41.3871 32.3984 41.2027 32.0157C41.0899 31.7659 40.9275 31.5425 40.7257 31.3594C40.5239 31.1763 40.2871 31.0375 40.03 30.9517C39.8593 31.4715 39.8898 32.0379 40.1155 32.5357C40.3411 33.0335 40.7449 33.4254 41.2449 33.6317C41.7448 33.8381 42.3033 33.8434 42.807 33.6466C43.3107 33.4499 43.7217 33.0658 43.9565 32.5723C43.7122 32.4499 43.4454 32.3804 43.1732 32.3684C42.901 32.3563 42.6293 32.4019 42.3755 32.5023Z" fill="#B79539"/>
<path d="M4.68033 32.5023C5.07742 32.6428 5.42239 32.9039 5.66848 33.2502C5.60482 32.829 5.66989 32.3981 5.85493 32.0157C5.96772 31.7659 6.1301 31.5425 6.3319 31.3594C6.5337 31.1763 6.77056 31.0375 7.02765 30.9517C7.12069 31.2098 7.16011 31.4847 7.14343 31.7591C7.12674 32.0334 7.05431 32.3013 6.9307 32.5458C6.68851 33.021 6.28733 33.3929 5.79929 33.5945C5.31125 33.7962 4.76838 33.8144 4.2683 33.6459C4.01161 33.5583 3.77557 33.4177 3.57502 33.233C3.37447 33.0482 3.21377 32.8233 3.10303 32.5723C3.34674 32.4501 3.61285 32.3808 3.88442 32.3687C4.15598 32.3566 4.42703 32.4021 4.68033 32.5023Z" fill="#B79539"/>
<path d="M40.8952 35.0829C40.4842 35.1716 40.11 35.3864 39.8232 35.6982C39.9359 35.2872 39.9215 34.851 39.7822 34.4486C39.7012 34.1866 39.5679 33.9444 39.3904 33.7372C39.213 33.53 38.9954 33.3623 38.7511 33.2445C38.516 33.7344 38.4775 34.298 38.6438 34.8162C38.8101 35.3344 39.1681 35.7667 39.6423 36.0219C40.103 36.2999 40.6519 36.3855 41.1735 36.2609C41.6951 36.1362 42.1487 35.811 42.439 35.3536C42.2137 35.2033 41.9604 35.1017 41.6948 35.0551C41.4293 35.0085 41.1571 35.018 40.8952 35.0829Z" fill="#B79539"/>
<path d="M6.16254 35.0829C6.57326 35.1723 6.94729 35.387 7.23458 35.6982C7.12131 35.2874 7.13498 34.8512 7.27374 34.4486C7.35499 34.1865 7.48867 33.9443 7.6664 33.7371C7.84414 33.5298 8.0621 33.3622 8.30663 33.2445C8.53365 33.7378 8.56869 34.2999 8.40472 34.8183C8.24076 35.3367 7.88991 35.7731 7.42249 36.0399C6.95508 36.3066 6.40564 36.3842 5.8843 36.2569C5.36297 36.1296 4.90827 35.807 4.61133 35.3536C4.83765 35.2026 5.09223 35.1006 5.35914 35.054C5.62604 35.0074 5.89954 35.0172 6.16254 35.0829Z" fill="#B79539"/>
<path d="M39.0178 37.2848C38.6002 37.3262 38.2052 37.4967 37.8861 37.7732C38.0432 37.3779 38.0771 36.943 37.983 36.5275C37.9315 36.2577 37.8255 36.0018 37.6718 35.7756C37.5181 35.5495 37.32 35.3581 37.09 35.2135C36.7988 35.6776 36.6933 36.2372 36.7952 36.7778C36.8971 37.3183 37.1986 37.7988 37.6381 38.1208C38.0775 38.4429 38.6215 38.5822 39.1588 38.5102C39.6961 38.4382 40.1859 38.1603 40.528 37.7335C40.3206 37.5565 40.0793 37.4252 39.8193 37.3479C39.5593 37.2707 39.2864 37.2492 39.0178 37.2848Z" fill="#B79539"/>
<path d="M8.0385 37.2848C8.45671 37.3258 8.85242 37.4964 9.17208 37.7732C9.01503 37.3779 8.98055 36.9433 9.07326 36.5275C9.12525 36.2579 9.23138 36.0021 9.38504 35.776C9.53869 35.55 9.73657 35.3585 9.96633 35.2135C10.2575 35.6776 10.363 36.2372 10.2611 36.7778C10.1592 37.3183 9.85766 37.7988 9.41824 38.1208C8.97882 38.4429 8.43477 38.5822 7.8975 38.5102C7.36023 38.4382 6.8704 38.1603 6.52832 37.7335C6.73572 37.5566 6.97705 37.4253 7.23702 37.3481C7.49698 37.2709 7.7699 37.2493 8.0385 37.2848Z" fill="#B79539"/>
<path d="M37.0338 39.712C36.571 39.7329 36.1254 39.8967 35.7567 40.1815C35.9549 39.7566 36.0199 39.2801 35.9431 38.8165C35.9021 38.5163 35.8004 38.2281 35.6445 37.9697C35.4885 37.7113 35.2817 37.4885 35.037 37.3151C34.6921 37.804 34.5483 38.4102 34.636 39.005C34.7237 39.5998 35.036 40.1366 35.5069 40.5015C35.9581 40.8921 36.5415 41.0888 37.1332 41.0499C37.7249 41.011 38.2784 40.7396 38.6764 40.2932C38.4568 40.0867 38.1975 39.9285 37.9148 39.8285C37.6322 39.7285 37.3323 39.6888 37.0338 39.712Z" fill="#B79539"/>
<path d="M10.0239 39.712C10.4861 39.7332 10.931 39.8969 11.2992 40.1815C11.1002 39.7568 11.0351 39.2801 11.1127 38.8165C11.1534 38.5162 11.2549 38.2278 11.4108 37.9693C11.5668 37.7109 11.7738 37.4881 12.0189 37.3151C12.3589 37.8089 12.5016 38.4154 12.4182 39.012C12.3348 39.6086 12.0315 40.1508 11.5696 40.529C11.1076 40.9072 10.5215 41.0932 9.92968 41.0495C9.33785 41.0057 8.78446 40.7354 8.38135 40.2932C8.60079 40.0865 8.86003 39.9281 9.14272 39.828C9.42541 39.728 9.72544 39.6885 10.0239 39.712Z" fill="#B79539"/>
<path d="M34.6924 41.6962C34.2318 41.6769 33.7764 41.8011 33.3873 42.0521C33.6193 41.6454 33.7228 41.1762 33.6837 40.7079C33.6689 40.405 33.5924 40.1086 33.4593 39.8371C33.3261 39.5657 33.1391 39.3252 32.91 39.1308C32.5275 39.5925 32.3322 40.1847 32.3636 40.7872C32.3951 41.3898 32.6509 41.9577 33.0793 42.3758C33.5076 42.794 34.0765 43.0311 34.6707 43.0392C35.2648 43.0473 35.8398 42.8257 36.279 42.4194C36.0778 42.1945 35.833 42.0141 35.56 41.8897C35.287 41.7652 34.9916 41.6993 34.6924 41.6962Z" fill="#B79539"/>
<path d="M12.3639 41.6962C12.8245 41.6772 13.2797 41.8014 13.669 42.0521C13.4364 41.6456 13.3323 41.1764 13.3707 40.7079C13.386 40.4051 13.4626 40.1088 13.5957 39.8374C13.7289 39.5661 13.9156 39.3255 14.1444 39.1308C14.5269 39.5925 14.7222 40.1847 14.6908 40.7872C14.6594 41.3898 14.4035 41.9577 13.9752 42.3758C13.5468 42.794 12.9779 43.0311 12.3838 43.0392C11.7896 43.0473 11.2147 42.8257 10.7754 42.4194C10.9769 42.1943 11.222 42.0139 11.4953 41.8894C11.7686 41.765 12.0643 41.6992 12.3639 41.6962Z" fill="#B79539"/>
<path d="M31.7797 43.6406C31.3231 43.5626 30.854 43.6287 30.4355 43.8299C30.7152 43.4559 30.8758 43.0041 30.896 42.5349C30.9184 42.2327 30.8791 41.9291 30.7806 41.6431C30.6821 41.3571 30.5265 41.0948 30.3236 40.8726C29.889 41.2823 29.6237 41.8443 29.5812 42.4449C29.5387 43.0456 29.7223 43.6403 30.0947 44.1089C30.4672 44.5775 31.0009 44.8851 31.5881 44.9697C32.1752 45.0543 32.7721 44.9095 33.2582 44.5645C33.0875 44.3156 32.8681 44.1051 32.6138 43.9462C32.3594 43.7872 32.0755 43.6832 31.7797 43.6406Z" fill="#B79539"/>
<path d="M15.2777 43.6406C15.7343 43.5628 16.2034 43.6289 16.622 43.8299C16.3417 43.4561 16.1804 43.0043 16.1596 42.5349C16.1375 42.2326 16.1771 41.9289 16.2759 41.6429C16.3747 41.3568 16.5306 41.0946 16.7338 40.8726C17.1709 41.2819 17.4383 41.8446 17.4818 42.4468C17.5253 43.0489 17.3417 43.6453 16.9681 44.115C16.5946 44.5846 16.059 44.8924 15.4702 44.9759C14.8814 45.0594 14.2833 44.9123 13.7974 44.5645C13.9683 44.3154 14.188 44.1048 14.4427 43.9458C14.6974 43.7869 14.9817 43.6829 15.2777 43.6406Z" fill="#B79539"/>
<path d="M44.3948 13.6431C44.509 13.4601 44.5854 13.2555 44.6197 13.0416C44.6539 12.8278 44.6451 12.6091 44.5939 12.3987C44.5427 12.1884 44.4501 11.9908 44.3217 11.8178C44.1932 11.6448 44.0317 11.4999 43.8467 11.392C43.7322 11.575 43.6555 11.7796 43.6212 11.9935C43.5868 12.2074 43.5955 12.4262 43.6468 12.6366C43.698 12.847 43.7907 13.0446 43.9193 13.2176C44.0478 13.3907 44.2096 13.5354 44.3948 13.6431Z" fill="#B79539"/>
<path d="M2.6611 13.6431C2.54705 13.4602 2.47056 13.2558 2.43621 13.0422C2.40186 12.8285 2.41036 12.6101 2.4612 12.3998C2.51204 12.1896 2.60418 11.992 2.73208 11.8188C2.85998 11.6456 3.02101 11.5004 3.20551 11.392C3.31932 11.5752 3.39548 11.7799 3.42942 11.9938C3.46336 12.2077 3.45437 12.4263 3.403 12.6366C3.35163 12.8469 3.25892 13.0444 3.13047 13.2174C3.00201 13.3904 2.84046 13.5352 2.6555 13.6431H2.6611Z" fill="#B79539"/>
<path d="M40.0991 16.4736C38.3223 8.8739 39.2284 5.65718 39.2284 5.65718C39.2284 5.65718 28.6012 3.38522 23.5672 0L23.5318 0.0208264L23.4983 0C18.4494 3.39469 7.83705 5.65718 7.83705 5.65718C7.83705 5.65718 8.74129 8.8758 6.96635 16.4736C5.96515 20.76 5.92227 33.146 23.5355 40.7893C41.1432 33.146 41.1003 20.76 40.0991 16.4736ZM19.1187 22.0645C18.7104 23.6284 16.9765 24.8041 14.8958 24.8041C12.8151 24.8041 11.0457 23.6076 10.6635 22.0191H10.6859H10.6654L13.5217 12.6226H14.1053L11.2415 22.0191H18.5482L15.6975 12.6207H16.281L19.1504 22.0588L19.1187 22.0645ZM27.5198 33.1896H19.5363V31.1069H22.5082V11.7479H12.4813V10.7596H22.5082V9.39267H24.5591V10.7596H34.5841V11.7479H24.5498V31.1069H27.5198V33.1896ZM32.1623 24.8004C30.0797 24.8004 28.3458 23.6246 27.9393 22.0607H27.9151L30.7863 12.6226H31.368L28.508 22.0191H35.8147L32.9565 12.617H33.5382L36.3926 22.0191C36.0198 23.6076 34.2616 24.8041 32.1623 24.8041V24.8004Z" fill="#B79539"/>
<path d="M29.5856 45.1609C29.129 45.0832 28.6599 45.1492 28.2414 45.3502C28.5224 44.9768 28.6837 44.5248 28.7037 44.0552C28.7261 43.7531 28.6868 43.4495 28.5883 43.1634C28.4898 42.8774 28.3343 42.6151 28.1314 42.3929C27.9053 42.591 27.7222 42.8347 27.5938 43.1085C27.4654 43.3823 27.3945 43.6802 27.3856 43.9833C27.3735 44.4822 27.5085 44.9734 27.7734 45.3938C27.2379 45.752 26.6428 46.0085 26.0171 46.1511C26.1213 46.284 26.1923 46.4406 26.2241 46.6074C26.8742 46.4438 27.4837 46.1446 28.0139 45.7289C28.3628 46.1398 28.8462 46.4087 29.3749 46.4862C29.6687 46.5404 29.9702 46.5325 30.2609 46.4631C30.5515 46.3938 30.8249 46.2643 31.0641 46.0829C30.8935 45.8341 30.6741 45.6237 30.4197 45.4651C30.1653 45.3064 29.8813 45.2028 29.5856 45.1609Z" fill="#B79539"/>
<path d="M21.0018 46.1322C20.3894 45.9904 19.8067 45.7391 19.2809 45.39C19.5464 44.9698 19.682 44.4786 19.6706 43.9795C19.6609 43.6765 19.5896 43.3789 19.4613 43.1052C19.333 42.8315 19.1503 42.5877 18.9248 42.3891C18.7216 42.611 18.5658 42.8733 18.4672 43.1594C18.3687 43.4455 18.3296 43.7492 18.3525 44.0514C18.3718 44.5208 18.5326 44.9728 18.813 45.3464C18.3945 45.1452 17.9253 45.0791 17.4687 45.1571C17.173 45.1984 16.889 45.3015 16.6345 45.4598C16.38 45.6182 16.1607 45.8284 15.9902 46.0773C16.2279 46.2574 16.4994 46.3862 16.7881 46.4556C17.0767 46.5249 17.3762 46.5334 17.6682 46.4805C18.1973 46.4039 18.6809 46.1348 19.0293 45.7232C19.556 46.1368 20.1617 46.4347 20.8079 46.5979C20.842 46.4313 20.9079 46.2731 21.0018 46.1322Z" fill="#B79539"/>
<path d="M25.918 46.6869C25.8876 46.503 25.8 46.3338 25.6681 46.2041C25.5544 46.0898 25.4129 46.0082 25.258 45.9675C25.0725 45.9253 24.8806 45.9221 24.6939 45.9583C24.5073 45.9944 24.33 46.0691 24.1729 46.1776C24.2348 45.9477 24.2619 45.7096 24.253 45.4714C24.212 44.5248 23.7123 43.9132 23.5278 43.8167C23.3413 43.9132 22.8454 44.5323 22.8025 45.4714C22.7936 45.7096 22.8207 45.9477 22.8827 46.1776C22.7257 46.0689 22.5483 45.9941 22.3616 45.9579C22.175 45.9218 21.983 45.925 21.7976 45.9675C21.6396 46.0077 21.4957 46.0916 21.3818 46.2098C21.2542 46.3442 21.1691 46.5143 21.1376 46.6983C21.098 46.867 21.1227 47.0446 21.2067 47.1956C21.2907 47.3466 21.4279 47.4598 21.5906 47.5124C22.2655 47.7017 21.4843 47.3079 22.1071 46.9652C22.5228 46.7361 22.9889 46.8592 22.961 47.4802C22.9423 47.8835 22.7484 48.3701 22.2805 48.1978C22.0698 48.1182 22.3494 48.6976 22.7354 48.7146C22.8696 48.7146 23.2406 48.6673 23.2947 48.3909C23.2947 48.7392 23.4178 49.1842 23.5315 49.2807C23.6452 49.1842 23.7683 48.7392 23.7683 48.3909C23.8186 48.6673 24.1896 48.7184 24.3276 48.7146C24.7135 48.6976 24.9932 48.1182 24.7844 48.1978C24.3145 48.3701 24.1207 47.8835 24.1039 47.4802C24.074 46.8592 24.542 46.7361 24.9559 46.9652C25.5786 47.3079 24.7993 47.7036 25.4742 47.5124C25.6369 47.4567 25.7729 47.3408 25.8551 47.1878C25.9373 47.0348 25.9598 46.856 25.918 46.6869Z" fill="#B79539"/>
</g>
<defs>
<clipPath id="clip0_36_805">
<rect width="47" height="50" fill="white"/>
</clipPath>
</defs>
</svg>
