<svg width="24" height="24" viewBox="0 0 24 24" fill="none" xmlns="http://www.w3.org/2000/svg">
<g clip-path="url(#clip0_2035_84)">
<path d="M21.6 6.606C21.5989 5.73007 21.2504 4.89033 20.6311 4.27095C20.0117 3.65157 19.1719 3.30311 18.296 3.302H17.6996V2.7C17.6996 2.51435 17.6258 2.3363 17.4946 2.20503C17.3633 2.07375 17.1853 2 16.9996 2C16.8139 2 16.6359 2.07375 16.5046 2.20503C16.3734 2.3363 16.2996 2.51435 16.2996 2.7V3.302H7.3004V2.7C7.3004 2.51435 7.22665 2.3363 7.09538 2.20503C6.9641 2.07375 6.78605 2 6.6004 2C6.41475 2 6.2367 2.07375 6.10543 2.20503C5.97415 2.3363 5.9004 2.51435 5.9004 2.7V3.302H5.304C4.42807 3.30311 3.58833 3.65157 2.96895 4.27095C2.34957 4.89033 2.00111 5.73007 2 6.606V18.296C2.00111 19.1719 2.34957 20.0117 2.96895 20.6311C3.58833 21.2504 4.42807 21.5989 5.304 21.6H12.7898C13.895 22.4997 15.2749 22.9938 16.7 23C18.3703 22.9981 19.9716 22.3338 21.1527 21.1527C22.3338 19.9716 22.9981 18.3703 23 16.7C22.9938 15.2749 22.4997 13.895 21.6 12.7898V6.606ZM5.304 4.702H5.9004V5.2998C5.9004 5.48545 5.97415 5.6635 6.10543 5.79477C6.2367 5.92605 6.41475 5.9998 6.6004 5.9998C6.78605 5.9998 6.9641 5.92605 7.09538 5.79477C7.22665 5.6635 7.3004 5.48545 7.3004 5.2998V4.702H16.2996V5.2998C16.2996 5.48545 16.3734 5.6635 16.5046 5.79477C16.6359 5.92605 16.8139 5.9998 16.9996 5.9998C17.1853 5.9998 17.3633 5.92605 17.4946 5.79477C17.6258 5.6635 17.6996 5.48545 17.6996 5.2998V4.702H18.296C18.8007 4.70274 19.2846 4.90358 19.6415 5.26049C19.9984 5.6174 20.1993 6.10125 20.2 6.606V7.1996H3.4V6.606C3.40074 6.10125 3.60158 5.6174 3.95849 5.26049C4.3154 4.90358 4.79926 4.70274 5.304 4.702ZM3.4 18.296V8.5996H20.2V11.4668C18.989 10.655 17.5338 10.2888 16.0829 10.4306C14.6319 10.5724 13.2752 11.2134 12.2443 12.2443C11.2134 13.2752 10.5724 14.6319 10.4306 16.0829C10.2888 17.5338 10.655 18.989 11.4668 20.2H5.304C4.79926 20.1993 4.3154 19.9984 3.95849 19.6415C3.60158 19.2846 3.40074 18.8007 3.4 18.296ZM16.7 21.6C15.7309 21.6 14.7835 21.3126 13.9777 20.7742C13.1719 20.2358 12.5439 19.4705 12.173 18.5751C11.8021 17.6798 11.7051 16.6946 11.8942 15.7441C12.0832 14.7935 12.5499 13.9205 13.2352 13.2352C13.9205 12.5499 14.7935 12.0832 15.7441 11.8942C16.6946 11.7051 17.6798 11.8021 18.5751 12.173C19.4705 12.5439 20.2358 13.1719 20.7742 13.9777C21.3126 14.7835 21.6 15.7309 21.6 16.7C21.5985 17.9991 21.0818 19.2446 20.1632 20.1632C19.2446 21.0818 17.9991 21.5985 16.7 21.6Z" fill="#B79539"/>
<path d="M17.3995 16.4104V13.9002C17.3995 13.7145 17.3258 13.5365 17.1945 13.4052C17.0632 13.2739 16.8852 13.2002 16.6995 13.2002C16.5139 13.2002 16.3358 13.2739 16.2045 13.4052C16.0733 13.5365 15.9995 13.7145 15.9995 13.9002V16.7002C15.9996 16.8855 16.0731 17.0632 16.2039 17.1944L17.6039 18.5944C17.7367 18.7168 17.9117 18.7832 18.0923 18.7795C18.2729 18.7759 18.4451 18.7026 18.573 18.575C18.7008 18.4474 18.7743 18.2753 18.7782 18.0947C18.782 17.9141 18.7159 17.739 18.5937 17.606L17.3995 16.4104Z" fill="#B79539"/>
</g>
<defs>
<clipPath id="clip0_2035_84">
<rect width="24" height="24" fill="white"/>
</clipPath>
</defs>
</svg>
